PathFileType	4	(X/Y/Z)	Patient4_TMGait_0pt5_02_right_35.trc.trc
DataRate	CameraRate	NumFrames	NumMarkers	Units	OrigDataRate	OrigDataStartFrame	OrigNumFrames
77.777777777778	77.777777777778	4	33	mm	77.777777777778	1	       141
Frame#	Time	Sacral			L.Shoulder			Chest			R.Shoulder			Neck			R.ASIS			L.ASIS			R.Thigh.Superior			R.Thigh.Lateral			R.Thigh.Inferior			R.Patella			L.Thigh.Superior			L.Thigh.Lateral			L.Thigh.Inferior			L.Patella			L.Shank.Superior			L.Shank.Lateral			L.Shank.Inferior			R.Shank.Superior			R.Shank.Lateral			R.Shank.Inferior			R.Heel			R.Midfoot.Superior			R.Midfoot.Lateral			R.Toe			L.Heel			L.Midfoot.Lateral			L.Midfoot.Superior			L.Toe			L.Elbow			L.Wrist			R.Elbow			R.Wrist			
		X1	Y1	Z1	X2	Y2	Z2	X3	Y3	Z3	X4	Y4	Z4	X5	Y5	Z5	X6	Y6	Z6	X7	Y7	Z7	X8	Y8	Z8	X9	Y9	Z9	X10	Y10	Z10	X11	Y11	Z11	X12	Y12	Z12	X13	Y13	Z13	X14	Y14	Z14	X15	Y15	Z15	X16	Y16	Z16	X17	Y17	Z17	X18	Y18	Z18	X19	Y19	Z19	X20	Y20	Z20	X21	Y21	Z21	X22	Y22	Z22	X23	Y23	Z23	X24	Y24	Z24	X25	Y25	Z25	X26	Y26	Z26	X27	Y27	Z27	X28	Y28	Z28	X29	Y29	Z29	X30	Y30	Z30	X31	Y31	Z31	X32	Y32	Z32	X33	Y33	Z33	

1	45.740000000000	729.803146260131	1017.030565075107	441.029126259553	921.386698482282	1430.989283564988	245.962041545911	1015.606090566680	1366.224705599597	414.652252875650	927.181479995623	1449.524148967736	582.147957033936	916.799631178242	1500.296813648895	393.404750428298	951.255221929064	949.954267009107	564.626019497722	945.207390896408	963.888067694060	291.462924008847	1034.566374232692	781.264550922908	539.982759835776	993.495563490388	660.052183121166	612.825526668251	1086.520863192172	620.979377969716	538.105553763749	1107.648164024975	509.335207347327	560.031525028108	978.143901558632	747.819733972940	322.756445138201	878.931749509680	639.657712662964	267.100402723610	953.473131092759	557.138876442327	333.470042296603	947.170685976094	490.455779914002	346.601146679804	924.954083024230	421.224656094746	340.036277707900	840.049772631985	302.508537061722	291.420844127737	892.552945856172	196.369330292900	370.199409917135	1035.559624674182	431.291362672252	563.363382249960	916.334555034910	382.337495437434	620.472381673371	908.675587089615	274.393694643405	569.107722152555	710.552697860471	196.756213211258	537.652416108603	885.227657654911	157.985145369161	583.051557863116	775.285311982775	148.746211888743	615.410538825279	959.098633975424	53.317351426870	615.837356847232	765.300074712989	37.914081636485	413.842065042639	844.451601311042	35.141320634067	337.570922888849	925.784982827482	96.338806332373	367.530394469893	1055.625775337346	44.331107625556	350.095259225916	954.197328106971	1080.227882379133	120.534323302086	1125.094437951496	882.270555268979	111.453817473495	846.866026933082	1115.864961918461	711.387870346416	900.376246072105	858.506001258709	714.230724090294	
2	45.752857142857	727.981666776333	1016.995893238577	440.344551898993	922.360247008234	1430.172300826875	245.628717985846	1015.041828908705	1365.647323377082	415.188819954574	925.559658279975	1449.502379059236	581.791284930100	916.766374083585	1499.841802707276	392.904737989751	949.325082476500	949.976759581017	565.065852921595	944.753080568374	963.830376489912	291.643284371904	1033.472126791268	782.629719298597	539.922311326394	994.026870969248	661.095973776150	613.115344274676	1086.693518607952	622.733401903155	537.737397323758	1109.435718366238	512.466705683942	559.783910618543	975.648457935963	747.169394804582	323.307915692208	875.797520631661	639.566624828464	266.998163046146	949.450009805776	556.617277925206	333.599543048660	942.597506625618	489.924000408201	346.646720596335	920.011920646934	420.835715761674	340.052151238716	834.576074561281	302.577032085442	291.159390837797	886.299115867898	196.186576372945	370.082846993641	1040.860566166916	432.549458898579	563.734757372131	925.205628448647	378.313541408174	622.277395027415	922.314260653070	270.221471200251	571.163696117279	728.628418443939	183.332706525718	541.707275450222	904.779948927898	152.953602513528	585.437069323435	796.034341614669	138.681988406537	618.913720691029	983.567744928507	52.270832328284	617.681550769224	758.420996527620	38.092284104080	413.656082235227	837.635060293399	35.101977839958	337.514282218177	919.004460798397	96.286812047005	367.476608397721	1048.824180962786	44.253569568316	350.106496615490	959.521313173360	1080.449670011404	119.738186657923	1137.502779989685	889.503797016185	110.487631007032	834.501863701186	1119.839317517151	710.819139977234	874.346775809258	861.391840213206	717.521324477554	
3	45.765714285714	726.196613025077	1016.948385801437	439.713678420839	923.325552090471	1429.338216227535	245.320173139202	1014.494118874729	1365.054912129262	415.734066821126	923.982184130677	1449.479559200426	581.452922861359	916.755744112719	1499.373511404683	392.425736195261	947.406372786420	949.972145451272	565.526071077182	944.258188140319	963.753604026797	291.853535163075	1032.308906611762	783.878220903632	539.881569671498	994.386973170130	662.038478811832	613.387885151324	1086.653738372506	624.326206418616	537.344291603924	1111.001352698240	515.494086928764	559.490549590014	973.214650809979	746.528064153509	323.850683286531	872.732756404673	639.466093710308	266.924244844718	945.525731675225	556.092600743443	333.746380926200	938.132442125666	489.388135970082	346.720747595485	915.175006060817	420.434481006283	340.091640732736	829.194574144343	302.644503317926	290.916584591815	880.114410040659	195.995988260026	369.985955116619	1045.994094884635	433.745879019586	564.086864675251	934.021021141710	374.230631365568	624.086979914709	935.951189606338	266.040459880242	573.200037782204	746.887802962528	169.856772838223	545.772954464917	924.402813060732	147.979847331287	587.787647451182	816.948568136850	128.652698067570	622.409692438318	1008.102026469150	51.395051110415	619.472643590095	751.604282293146	38.259589791773	413.473548733537	830.872763328973	35.063216266722	337.458392151223	912.276935750255	96.234445603945	367.427006165215	1042.076916493791	44.172006722879	350.118354078546	964.735364890738	1080.645537013135	118.988990947458	1149.700269815102	896.722609921116	109.606959811621	822.345612396145	1123.844083954460	710.258231286879	848.750984564439	864.460442607002	720.684879577199	
4	45.778571428571	724.486704720939	1016.879548590956	439.188912048954	924.278223343843	1428.474599289584	245.069810242055	1013.983681230559	1364.432520325586	416.303498874358	922.502521629637	1449.452845016732	581.160815741354	916.791091286227	1498.880336991050	391.998831302315	945.511980819752	949.913353116000	566.034129612186	943.694999201743	963.638350779093	292.127806833439	1030.995189277361	784.883402357427	539.896463358552	994.392525531438	662.777588957037	613.656456152713	1086.190964821516	625.596298081364	536.937249351514	1112.107019440774	518.306331103189	559.136240680384	970.879852166945	745.897815716753	324.391005428699	869.779892065245	639.349404995865	266.908306558205	941.757061618183	555.563305780664	333.928915422772	933.838974040310	488.845302170771	346.848200900762	910.504599119647	420.013338176642	340.175277024263	823.958776099701	302.710511628802	290.710607537592	874.038097866801	195.790841283024	369.926072229898	1050.775355787447	434.837837026735	564.418865900968	942.711584985418	370.068993641133	625.897945376380	949.563470447994	261.910099121295	575.186694090340	765.506735717701	156.400819990148	549.805479527748	944.146773684497	143.195500954731	590.044576237498	838.170545734125	118.779525785048	625.838271697821	1032.717020431970	50.914113530118	621.122267779007	744.889619603208	38.407959688957	413.299688655975	824.198839494744	35.025980901078	337.404690520374	905.635344292263	96.181399917382	367.385561645241	1035.418022504881	44.084062357515	350.131289003339	969.721475040709	1080.785986878213	118.348031085297	1161.453849497164	903.900918094222	108.910794092176	810.630983281284	1127.889997181480	709.724215944998	824.064993179243	867.853201167077	723.609794053723	
